<svg width="26" height="26" viewBox="0 0 26 26" fill="none" xmlns="http://www.w3.org/2000/svg">
<circle cx="13" cy="13" r="13" fill="#8A226C"/>
<path d="M9.25432 6.71293H11.322C11.4183 6.71293 11.5141 6.75965 11.5732 6.834C11.6213 6.89453 11.648 6.96698 11.648 7.04229C11.648 7.06469 11.648 7.08567 11.6428 7.10807L10.6595 11.7496H15.6765L17.1408 4.79923C15.8906 4.15863 14.4692 3.79639 12.9678 3.79639C7.90305 3.79639 3.80444 7.88975 3.80444 12.9383C3.80444 15.3744 4.75581 17.5865 6.31585 19.2285L8.93402 6.9727C8.96596 6.81922 9.09941 6.71293 9.25432 6.71293Z" fill="white"/>
<path d="M12.9679 0C5.80259 0 0 5.79592 0 12.9379C0 20.0808 5.80259 25.8752 12.9679 25.8752C20.1279 25.8752 25.9305 20.0812 25.9305 12.9379C25.9305 5.79592 20.1279 0 12.9679 0ZM12.9679 24.6122C6.50325 24.6122 1.26643 19.3877 1.26643 12.9383C1.26643 6.49419 6.50277 1.26547 12.9679 1.26547C19.4273 1.26547 24.6703 6.49467 24.6703 12.9383C24.6698 19.3877 19.4268 24.6122 12.9679 24.6122Z" fill="white"/>
<path d="M19.524 6.55188L16.7986 19.3558C16.7614 19.505 16.6332 19.6118 16.4783 19.6118H14.3892C14.2934 19.6118 14.1971 19.5689 14.1327 19.4945C14.0898 19.4359 14.0631 19.3615 14.0631 19.2862C14.0631 19.2652 14.0631 19.2438 14.0684 19.2166L15.1689 14.0942H10.1576L8.67236 21.0136C9.95452 21.6961 11.413 22.0793 12.9678 22.0793C18.0278 22.0793 22.1312 17.9855 22.1312 12.9374C22.1307 10.4541 21.1369 8.19962 19.524 6.55188Z" fill="white"/>
</svg>
